<svg viewBox="0 0 26.1224 32.1079" xmlns="http://www.w3.org/2000/svg" xmlns:xlink="http://www.w3.org/1999/xlink" width="26.122437" height="32.107910" fill="none" customFrame="#000000">
	<path id="Apple logo" d="M19.4337 0C19.5765 1.86407 18.987 3.71036 17.7904 5.1468C16.6444 6.5721 14.8466 7.42212 13.0179 7.40329C12.9012 5.61047 13.5183 3.79666 14.7042 2.44704C15.917 1.06571 17.6056 0.192006 19.4337 0ZM21.8181 17.0748C21.8501 14.5963 23.1812 12.251 25.2928 10.9528C23.9607 9.05024 21.7294 7.84398 19.408 7.77135C17.8934 7.61238 16.4072 8.20224 15.1926 8.68431C14.4215 8.99034 13.7599 9.25294 13.2699 9.25294C12.7126 9.25294 12.0319 8.97955 11.2693 8.67322C10.2721 8.27267 9.13466 7.8158 7.9493 7.84019C5.22264 7.92828 2.68071 9.47851 1.35414 11.8623C-1.49748 16.7995 0.62957 24.0554 3.36118 28.0462C4.72786 30.0004 6.32512 32.1833 8.4151 32.1058C10.4603 32.021 11.2241 30.8017 13.6928 30.8017C14.9415 30.8017 15.7395 31.1416 16.5052 31.4678C17.2394 31.7806 17.9439 32.0807 18.9876 32.0566C21.1822 32.021 22.5649 30.0938 23.8836 28.1211C24.8655 26.7286 25.6212 25.1897 26.1224 23.5613C23.5434 22.4705 21.8211 19.8751 21.8181 17.0748Z" fill="rgb(178,178,178)" fill-rule="evenodd" />
</svg>
